<svg id="Icon" xmlns="http://www.w3.org/2000/svg" xmlns:xlink="http://www.w3.org/1999/xlink" viewBox="0 0 512 512"><defs><style>.cls-1{fill:url(#Dégradé_sans_nom_5);}.cls-2{fill:#3a2623;}</style><linearGradient id="Dégradé_sans_nom_5" y1="256" x2="512" y2="256" gradientUnits="userSpaceOnUse"><stop offset="0" stop-color="#997a77"/><stop offset="0.09" stop-color="#9e807d"/><stop offset="0.22" stop-color="#ab908d"/><stop offset="0.35" stop-color="#c2aaa8"/><stop offset="0.5" stop-color="#e0cecd"/><stop offset="0.65" stop-color="#c2aaa8"/><stop offset="0.78" stop-color="#ab908d"/><stop offset="0.91" stop-color="#9e807d"/><stop offset="1" stop-color="#997a77"/></linearGradient></defs><title>chat_search_hide</title><circle class="cls-1" cx="256" cy="256" r="256"/><path class="cls-2" d="M196.27,409.51l-5-5a7.85,7.85,0,0,1,0-11.1l205-205a7.84,7.84,0,0,1,11.09,0l5,5a7.84,7.84,0,0,1,0,11.1l-205,205A7.84,7.84,0,0,1,196.27,409.51Z" transform="translate(-44 -44)"/><path class="cls-2" d="M316.61,237.45a3.53,3.53,0,0,1,1.45,5.87c-3.88,3.89-7.74,7.76-11.67,11.54a4.65,4.65,0,0,1-3.18.77C276.39,254,255,275.38,256.67,302.14a4.65,4.65,0,0,1-.75,3.19c-3.79,3.94-7.67,7.79-11.57,11.67a3.53,3.53,0,0,1-5.86-1.44c-5.06-16.69-2.59-42.61,16.1-61.5C273.54,234.92,299.61,232.34,316.61,237.45Z" transform="translate(-44 -44)"/><path class="cls-2" d="M286.52,361.2a3.54,3.54,0,0,1-1.69-6c4.06-4,8-7.9,12-11.69a5.81,5.81,0,0,1,3.5-1.1c24.85-1.19,42.06-18.37,43.2-43.16,0-1,0-2.37.59-3,4-4.16,8.12-8.24,12.27-12.37a3.54,3.54,0,0,1,5.93,1.7c4,17,.28,40.87-16.89,58.22C328,361.41,304,365.36,286.52,361.2Z" transform="translate(-44 -44)"/><path class="cls-2" d="M349,209.94c-33.31-8.53-66.72-9-100.14-.87-48.61,11.86-88,38.6-120.85,75.65-3.16,3.57-5.81,7.6-8.7,11.41h0a5.1,5.1,0,0,0,0,4.95h0a76.57,76.57,0,0,0,4.44,6.72,227.2,227.2,0,0,0,43.67,41.36c8.75,6.25,17.95,11.88,26,17.16l15.1-15.06c-11.06-7.45-23-15-34.34-23.26s-21.5-18.42-30.72-29.29a232.3,232.3,0,0,1,35.25-33c45.58-34.18,96.16-48.51,152.89-38.28a3.45,3.45,0,0,0,2.6-.35c5.51-5.38,10.91-10.88,16.61-16.6C349.82,210.19,349.4,210.05,349,209.94Z" transform="translate(-44 -44)"/><path class="cls-2" d="M480.72,296.9a76.59,76.59,0,0,0-4.44-6.72,227.2,227.2,0,0,0-43.67-41.36c-8.75-6.25-17.95-11.88-26-17.16l-15.1,15.06c11.06,7.45,23,15,34.34,23.26s21.5,18.42,30.72,29.29a232.3,232.3,0,0,1-35.25,33c-45.58,34.18-96.16,48.51-152.89,38.28a3.45,3.45,0,0,0-2.6.35c-5.51,5.38-10.91,10.88-16.61,16.6.95.27,1.37.41,1.8.52,33.31,8.53,66.72,9,100.14.87,48.61-11.86,88-38.6,120.85-75.65,3.16-3.57,5.81-7.6,8.7-11.41h0A5.1,5.1,0,0,0,480.72,296.9Z" transform="translate(-44 -44)"/></svg>