<svg id="Icon" xmlns="http://www.w3.org/2000/svg" xmlns:xlink="http://www.w3.org/1999/xlink" viewBox="0 0 249.08 337.22"><defs><style>.cls-1{fill:url(#Dégradé_sans_nom_2);}.cls-2{fill:url(#Dégradé_sans_nom_7);}</style><linearGradient id="Dégradé_sans_nom_2" x1="175.46" y1="300" x2="424.54" y2="300" gradientUnits="userSpaceOnUse"><stop offset="0" stop-color="#997a77"/><stop offset="0.09" stop-color="#9e807d"/><stop offset="0.22" stop-color="#ab908d"/><stop offset="0.35" stop-color="#c2aaa8"/><stop offset="0.5" stop-color="#e0cecd"/><stop offset="0.59" stop-color="#c1acab"/><stop offset="0.71" stop-color="#9e8785"/><stop offset="0.83" stop-color="#856c6a"/><stop offset="0.92" stop-color="#765c5a"/><stop offset="1" stop-color="#715654"/></linearGradient><linearGradient id="Dégradé_sans_nom_7" x1="269.15" y1="361.13" x2="334.97" y2="361.13" gradientUnits="userSpaceOnUse"><stop offset="0" stop-color="#3a2623"/><stop offset="0.12" stop-color="#402b28"/><stop offset="0.28" stop-color="#503937"/><stop offset="0.47" stop-color="#6b514f"/><stop offset="0.5" stop-color="#715654"/><stop offset="0.53" stop-color="#6b514f"/><stop offset="0.72" stop-color="#503937"/><stop offset="0.88" stop-color="#402b28"/><stop offset="1" stop-color="#3a2623"/></linearGradient></defs><title>lock</title><path class="cls-1" d="M424.53,303.47c0-4.3,0-8.6,0-12.9a27.78,27.78,0,0,0-1.94-10.4c-4.37-11-12.43-17.66-23.87-20.38l-1.67-.42c0-.89,0-1.69,0-2.5q0-21.61,0-43.21a84.28,84.28,0,0,0-1.3-15.08A82.06,82.06,0,0,0,378.56,161a79,79,0,0,0-62-29.6c-11.54.1-23.07,0-34.61,0a74.89,74.89,0,0,0-15.46,1.51,77.9,77.9,0,0,0-42.14,23.7c-14.66,15.79-22.05,34.58-22.24,56.11-.13,14.74,0,29.49,0,44.24,0,.81,0,1.62,0,2.49-.32.15-.38.19-.44.21-.66.18-1.32.34-2,.52-11.14,3.21-18.82,10.15-22.7,21.14a30.48,30.48,0,0,0-1.55,10.27q0,72.29,0,144.58c0,.34,0,.68,0,1a29.37,29.37,0,0,0,1.87,10.21,32.76,32.76,0,0,0,30.7,21.2q92,0,183.91,0a30.6,30.6,0,0,0,4.69-.34A32.06,32.06,0,0,0,421,451.15a30.2,30.2,0,0,0,3.56-14.76Q424.51,369.93,424.53,303.47Zm-105.86,63.2c-1.06.61-2.16,1.15-3.32,1.76a5.81,5.81,0,0,0-.15,2.17q0,16.68,0,33.37a14.41,14.41,0,0,1-.31,3.24,10.69,10.69,0,0,1-9.34,8.25,31.88,31.88,0,0,1-5.51,0,10.78,10.78,0,0,1-9.62-9.62c-.07-.81-.09-1.63-.09-2.45q0-16,0-31.93c0-.81,0-1.62-.07-2.46-1.25-.58-2.26-1-3.22-1.51-8.7-4.54-14.63-11.45-16.87-21-2.93-12.53.63-23.29,10.28-31.75,14-12.24,35.64-10.26,47.38,4.13A31.75,31.75,0,0,1,318.67,366.67Zm51.61-107.75c-.61.07-.94.15-1.27.15l-139.44,0a2.26,2.26,0,0,1-.6-.19,4.37,4.37,0,0,1-.21-2.2q0-14.54,0-29.08c0-4.71,0-9.42,0-14.13a54.94,54.94,0,0,1,5.73-24.91c7-14,17.95-23.5,33-28.14a50.51,50.51,0,0,1,14.94-2.11c11.33,0,22.66,0,34,0A53,53,0,0,1,362.74,185a54.54,54.54,0,0,1,7.42,24.44c.11,1.77.17,3.54.18,5.32q0,20.78,0,41.57C370.34,257.14,370.3,257.95,370.28,258.92Z" transform="translate(-175.46 -131.39)"/><path class="cls-2" d="M290.24,369c0,.84.07,1.65.07,2.46q0,16,0,31.93c0,.82,0,1.64.09,2.45a10.78,10.78,0,0,0,9.62,9.62,31.88,31.88,0,0,0,5.51,0,10.69,10.69,0,0,0,9.34-8.25,14.41,14.41,0,0,0,.31-3.24q0-16.68,0-33.37a5.81,5.81,0,0,1,.15-2.17c1.15-.61,2.26-1.15,3.32-1.76a31.75,31.75,0,0,0,9.14-47.82c-11.73-14.39-33.41-16.37-47.37-4.13-9.65,8.46-13.21,19.22-10.28,31.75,2.24,9.58,8.17,16.48,16.87,21C288,368,289,368.42,290.24,369Z" transform="translate(-175.46 -131.39)"/></svg>