<svg id="Rectangle" xmlns="http://www.w3.org/2000/svg" xmlns:xlink="http://www.w3.org/1999/xlink" viewBox="0 0 481.81 484.33"><defs><style>.cls-1{fill:url(#Dégradé_sans_nom_13);}.cls-2{fill:url(#Dégradé_sans_nom_3);}.cls-3{fill:#f7e5e4;}</style><linearGradient id="Dégradé_sans_nom_13" x1="232.15" y1="542.16" x2="232.15" y2="57.84" gradientUnits="userSpaceOnUse"><stop offset="0" stop-color="#251514"/><stop offset="0.23" stop-color="#271716"/><stop offset="0.31" stop-color="#2e1d1c"/><stop offset="0.37" stop-color="#392827"/><stop offset="0.42" stop-color="#4a3836"/><stop offset="0.46" stop-color="#604c4a"/><stop offset="0.49" stop-color="#7b6562"/><stop offset="0.5" stop-color="#826b68"/><stop offset="0.52" stop-color="#6c5855"/><stop offset="0.56" stop-color="#51413f"/><stop offset="0.6" stop-color="#3b2e2c"/><stop offset="0.64" stop-color="#2a1f1d"/><stop offset="0.7" stop-color="#1f1513"/><stop offset="0.78" stop-color="#180f0e"/><stop offset="1" stop-color="#160d0c"/></linearGradient><linearGradient id="Dégradé_sans_nom_3" x1="329.73" y1="540.16" x2="329.73" y2="59.84" gradientUnits="userSpaceOnUse"><stop offset="0" stop-color="#b25441"/><stop offset="0.25" stop-color="#b45643"/><stop offset="0.33" stop-color="#ba5c4a"/><stop offset="0.4" stop-color="#c66755"/><stop offset="0.45" stop-color="#d67766"/><stop offset="0.49" stop-color="#eb8b7c"/><stop offset="0.5" stop-color="#f09081"/><stop offset="0.52" stop-color="#da7f71"/><stop offset="0.56" stop-color="#bf6c5e"/><stop offset="0.6" stop-color="#a95b4e"/><stop offset="0.64" stop-color="#984e42"/><stop offset="0.7" stop-color="#8d4539"/><stop offset="0.78" stop-color="#864034"/><stop offset="1" stop-color="#843f33"/></linearGradient></defs><title>tiedapp_logo</title><path class="cls-1" d="M316,517a25.16,25.16,0,0,0-25.13-25.13H243.56a29.13,29.13,0,0,1-6.45-57.53l.22,0,6.23-.69H348.5a25.13,25.13,0,0,0,0-50.26H142.68a29.13,29.13,0,0,1,0-58.26H272.87a25.13,25.13,0,1,0,0-50.26h-4A29.13,29.13,0,0,1,264.37,217l.15,0,4.34-.33H381.08a25.13,25.13,0,0,0,0-50.26H207.35a29.13,29.13,0,0,1,0-58.26h29.9a25.13,25.13,0,0,0,0-50.26H88.09c-15.5,0-30,15-30,29.16v21.1h0v58.26h0V270.87h0v4h0v50.26h0v2l0,185.23a30,30,0,0,0,30,29.8H290.87A25.16,25.16,0,0,0,316,517Z" transform="translate(-58.09 -57.84)"/><path class="cls-2" d="M509.91,59.84H258.06a31.12,31.12,0,0,1-20.81,54.26h-29.9a23.13,23.13,0,1,0,0,46.26H381.08a31.13,31.13,0,1,1,0,62.26H268.86a23.13,23.13,0,0,0,0,46.26h4a31.13,31.13,0,0,1,0,62.26H142.68a23.13,23.13,0,0,0,0,46.26H348.5a31.13,31.13,0,1,1,0,62.26H243.56a23.13,23.13,0,1,0,0,46.26h47.31a31.12,31.12,0,0,1,20.81,54.26H509.91a30,30,0,0,0,30-30V89.84A30,30,0,0,0,509.91,59.84Z" transform="translate(-58.09 -57.84)"/><circle class="cls-3" cx="388.57" cy="330.16" r="38.45"/><circle class="cls-3" cx="398.07" cy="203.72" r="19.22"/><circle class="cls-3" cx="271.12" cy="261.9" r="9.87"/></svg>